<mxfile host="app.diagrams.net" agent="Mozilla/5.0 (Windows NT 10.0; Win64; x64) AppleWebKit/537.36 (KHTML, like Gecko) Chrome/138.0.0.0 Safari/537.36 Edg/138.0.0.0" version="28.0.7">
  <diagram name="Page-1" id="BwKJSNI2tJBsrVRTb-gb">
    <mxGraphModel dx="988" dy="586" grid="1" gridSize="10" guides="1" tooltips="1" connect="1" arrows="1" fold="1" page="0" pageScale="1" pageWidth="827" pageHeight="1169" math="0" shadow="0">
      <root>
        <mxCell id="0" />
        <mxCell id="1" parent="0" />
        <mxCell id="5EXJSKY1YD9nRfPW61KN-1" value="line" style="rounded=0;whiteSpace=wrap;html=1;sketch=1;hachureGap=4;jiggle=2;curveFitting=1;fontFamily=Architects Daughter;fontSource=https%3A%2F%2Ffonts.googleapis.com%2Fcss%3Ffamily%3DArchitects%2BDaughter;" vertex="1" parent="1">
          <mxGeometry x="200" y="470" width="120" height="60" as="geometry" />
        </mxCell>
        <mxCell id="5EXJSKY1YD9nRfPW61KN-5" value="" style="shape=flexArrow;endArrow=classic;html=1;rounded=0;sketch=1;hachureGap=4;jiggle=2;curveFitting=1;fontFamily=Architects Daughter;fontSource=https%3A%2F%2Ffonts.googleapis.com%2Fcss%3Ffamily%3DArchitects%2BDaughter;" edge="1" parent="1">
          <mxGeometry width="50" height="50" relative="1" as="geometry">
            <mxPoint x="560" y="559.5" as="sourcePoint" />
            <mxPoint x="3423" y="540" as="targetPoint" />
          </mxGeometry>
        </mxCell>
        <mxCell id="5EXJSKY1YD9nRfPW61KN-7" value="" style="ellipse;whiteSpace=wrap;html=1;sketch=1;hachureGap=4;jiggle=2;curveFitting=1;fontFamily=Architects Daughter;fontSource=https%3A%2F%2Ffonts.googleapis.com%2Fcss%3Ffamily%3DArchitects%2BDaughter;" vertex="1" parent="1">
          <mxGeometry x="570" y="240" width="120" height="80" as="geometry" />
        </mxCell>
        <mxCell id="5EXJSKY1YD9nRfPW61KN-8" value="amendPartnerReferenceAndEmailToDraft&lt;br&gt;update followUps" style="rounded=1;whiteSpace=wrap;html=1;sketch=1;hachureGap=4;jiggle=2;curveFitting=1;fontFamily=Architects Daughter;fontSource=https%3A%2F%2Ffonts.googleapis.com%2Fcss%3Ffamily%3DArchitects%2BDaughter;" vertex="1" parent="1">
          <mxGeometry x="2910" y="720" width="280" height="90" as="geometry" />
        </mxCell>
        <mxCell id="5EXJSKY1YD9nRfPW61KN-15" style="edgeStyle=orthogonalEdgeStyle;rounded=0;sketch=1;hachureGap=4;jiggle=2;curveFitting=1;orthogonalLoop=1;jettySize=auto;html=1;fontFamily=Architects Daughter;fontSource=https%3A%2F%2Ffonts.googleapis.com%2Fcss%3Ffamily%3DArchitects%2BDaughter;" edge="1" parent="1" source="5EXJSKY1YD9nRfPW61KN-9" target="5EXJSKY1YD9nRfPW61KN-8">
          <mxGeometry relative="1" as="geometry" />
        </mxCell>
        <mxCell id="5EXJSKY1YD9nRfPW61KN-9" value="&lt;b&gt;DraftsActions.updatePartnerReference&lt;/b&gt;" style="rounded=1;whiteSpace=wrap;html=1;sketch=1;hachureGap=4;jiggle=2;curveFitting=1;fontFamily=Architects Daughter;fontSource=https%3A%2F%2Ffonts.googleapis.com%2Fcss%3Ffamily%3DArchitects%2BDaughter;" vertex="1" parent="1">
          <mxGeometry x="2910" y="510" width="280" height="90" as="geometry" />
        </mxCell>
        <mxCell id="5EXJSKY1YD9nRfPW61KN-16" value="&lt;b&gt;fromActions.DraftsActions.validateEditDraft&lt;/b&gt;" style="rounded=1;whiteSpace=wrap;html=1;sketch=1;hachureGap=4;jiggle=2;curveFitting=1;fontFamily=Architects Daughter;fontSource=https%3A%2F%2Ffonts.googleapis.com%2Fcss%3Ffamily%3DArchitects%2BDaughter;" vertex="1" parent="1">
          <mxGeometry x="2330" y="500" width="280" height="90" as="geometry" />
        </mxCell>
        <mxCell id="5EXJSKY1YD9nRfPW61KN-20" value="&lt;b&gt;FollowUpDetailComponent&lt;/b&gt;" style="rounded=1;whiteSpace=wrap;html=1;sketch=1;hachureGap=4;jiggle=2;curveFitting=1;fontFamily=Architects Daughter;fontSource=https%3A%2F%2Ffonts.googleapis.com%2Fcss%3Ffamily%3DArchitects%2BDaughter;" vertex="1" parent="1">
          <mxGeometry x="2150" y="200" width="280" height="90" as="geometry" />
        </mxCell>
        <mxCell id="5EXJSKY1YD9nRfPW61KN-21" value="&lt;b&gt;fromActions.DraftsActions.validateEditDraft&lt;/b&gt;" style="rounded=1;whiteSpace=wrap;html=1;sketch=1;hachureGap=4;jiggle=2;curveFitting=1;fontFamily=Architects Daughter;fontSource=https%3A%2F%2Ffonts.googleapis.com%2Fcss%3Ffamily%3DArchitects%2BDaughter;" vertex="1" parent="1">
          <mxGeometry x="2420" y="70" width="280" height="90" as="geometry" />
        </mxCell>
        <mxCell id="5EXJSKY1YD9nRfPW61KN-22" style="edgeStyle=orthogonalEdgeStyle;rounded=0;sketch=1;hachureGap=4;jiggle=2;curveFitting=1;orthogonalLoop=1;jettySize=auto;html=1;entryX=0.132;entryY=0.044;entryDx=0;entryDy=0;entryPerimeter=0;fontFamily=Architects Daughter;fontSource=https%3A%2F%2Ffonts.googleapis.com%2Fcss%3Ffamily%3DArchitects%2BDaughter;" edge="1" parent="1" source="5EXJSKY1YD9nRfPW61KN-20" target="5EXJSKY1YD9nRfPW61KN-16">
          <mxGeometry relative="1" as="geometry" />
        </mxCell>
        <mxCell id="5EXJSKY1YD9nRfPW61KN-23" style="edgeStyle=orthogonalEdgeStyle;rounded=0;sketch=1;hachureGap=4;jiggle=2;curveFitting=1;orthogonalLoop=1;jettySize=auto;html=1;entryX=0.657;entryY=1.022;entryDx=0;entryDy=0;entryPerimeter=0;fontFamily=Architects Daughter;fontSource=https%3A%2F%2Ffonts.googleapis.com%2Fcss%3Ffamily%3DArchitects%2BDaughter;" edge="1" parent="1" source="5EXJSKY1YD9nRfPW61KN-16" target="5EXJSKY1YD9nRfPW61KN-21">
          <mxGeometry relative="1" as="geometry" />
        </mxCell>
      </root>
    </mxGraphModel>
  </diagram>
</mxfile>
